<?xml version="1.0" standalone="no"?>
<!DOCTYPE svg PUBLIC "-//W3C//DTD SVG 20010904//EN"
 "http://www.w3.org/TR/2001/REC-SVG-20010904/DTD/svg10.dtd">
<svg version="1.0" xmlns="http://www.w3.org/2000/svg"
 width="300.000000pt" height="300.000000pt" viewBox="0 0 300.000000 300.000000"
 preserveAspectRatio="xMidYMid meet">
<metadata>
Created by potrace 1.11, written by Peter Selinger 2001-2013
</metadata>
<g transform="translate(0.000000,300.000000) scale(0.100000,-0.100000)"
fill="#000000" stroke="none">
<path d="M1406 2963 c-5 -31 6 -324 14 -358 4 -19 -2 -70 -6 -55 -3 8 -15 37
-27 64 l-22 50 -5 -34 -5 -34 -53 50 c-74 68 -87 74 -78 38 8 -31 30 -80 46
-104 5 -8 14 -27 20 -42 5 -16 14 -28 20 -28 6 0 9 4 5 9 -3 5 0 13 5 16 6 4
15 18 21 32 10 27 29 23 29 -6 0 -10 6 -23 13 -29 7 -6 13 -22 15 -36 2 -25
-1 -26 -45 -26 -53 0 -132 -26 -149 -50 -28 -36 -52 -60 -63 -60 -6 0 -11 -7
-11 -15 0 -17 -29 -34 -48 -28 -7 3 -10 -1 -7 -9 8 -21 -8 -58 -40 -92 -17
-19 -25 -37 -23 -51 4 -18 1 -21 -14 -17 -12 3 -18 -1 -18 -12 0 -9 4 -16 9
-16 5 0 11 -11 13 -25 6 -30 -8 -34 -17 -5 -7 21 -25 28 -25 10 0 -5 -7 -10
-15 -10 -8 0 -15 -7 -15 -15 0 -8 5 -15 10 -15 6 0 10 -5 10 -11 0 -6 -7 -9
-15 -5 -8 3 -15 1 -15 -4 0 -5 -15 -9 -33 -8 -35 1 -57 -7 -57 -21 0 -5 11 -6
25 -3 15 2 25 0 25 -7 0 -6 8 -12 18 -12 9 -1 -6 -5 -34 -9 -30 -4 -68 -19
-90 -35 -39 -27 -28 -28 33 -4 26 10 35 11 45 1 9 -9 6 -12 -16 -12 -15 0 -25
-4 -21 -10 4 -6 -5 -10 -19 -10 -28 0 -35 -17 -11 -26 19 -8 19 -24 0 -24 -8
0 -15 -4 -15 -8 0 -4 -13 -13 -30 -19 -16 -6 -30 -18 -30 -27 0 -9 -6 -16 -14
-16 -8 0 -17 -4 -20 -9 -4 -5 3 -7 14 -4 30 8 24 -8 -12 -39 -32 -27 -32 -27
-9 -28 l24 0 -23 -25 c-15 -16 -19 -25 -10 -25 9 0 6 -8 -8 -23 -19 -20 -30
-57 -18 -57 3 0 21 9 40 21 20 11 41 19 48 16 9 -3 8 -7 -4 -12 -10 -4 -39
-27 -65 -51 -27 -24 -56 -44 -65 -44 -10 0 -18 -4 -18 -9 0 -12 29 -23 41 -16
5 4 6 -1 3 -9 -3 -9 -11 -16 -16 -16 -14 0 -68 -39 -68 -49 0 -5 12 -6 26 -3
19 3 25 1 20 -7 -9 -14 -1 -14 25 -1 13 7 19 7 19 0 0 -5 -4 -10 -9 -10 -5 0
-21 -16 -37 -37 l-27 -36 32 6 c29 6 32 5 21 -8 -9 -10 -9 -15 -1 -15 22 0 10
-18 -24 -39 -37 -22 -46 -41 -19 -41 12 0 14 -4 7 -12 -13 -17 -16 -78 -4 -78
5 0 8 -15 7 -32 -2 -18 2 -37 8 -41 7 -5 3 -6 -8 -3 -43 14 -54 -49 -20 -116
13 -26 13 -28 -4 -28 -10 0 -23 5 -30 12 -15 15 -16 -9 -2 -46 6 -17 6 -36 -2
-57 -12 -34 3 -96 26 -111 6 -4 12 -29 14 -55 5 -89 6 -94 24 -90 14 4 17 -2
15 -35 -2 -46 19 -68 66 -68 45 0 65 -16 72 -60 7 -43 27 -60 69 -60 14 0 26
-2 26 -4 0 -2 -15 -39 -34 -83 l-33 -78 -107 0 c-101 0 -106 -1 -106 -21 0
-27 -22 -46 -45 -38 -9 4 -24 8 -33 9 -10 1 -30 7 -47 14 -33 14 -155 23 -155
11 0 -5 14 -13 30 -19 17 -5 30 -17 30 -27 0 -12 -5 -14 -17 -9 -10 4 -30 10
-45 13 -16 2 -28 8 -28 13 0 5 -5 9 -11 9 -6 0 -8 -9 -4 -20 7 -21 -9 -28 -20
-10 -4 6 -15 8 -26 5 -13 -4 -19 -2 -19 9 0 15 -12 21 -34 17 -4 -1 -13 2 -20
7 -6 5 -30 9 -54 10 l-42 1 0 -75 0 -74 1500 0 1500 0 0 26 c0 31 -30 72 -48
66 -7 -2 -19 2 -27 8 -23 19 -17 3 7 -20 12 -11 17 -20 10 -20 -6 0 -14 5 -17
10 -4 6 -16 8 -28 4 -19 -6 -20 -5 -10 8 16 18 5 32 -13 17 -14 -11 -38 -3
-29 10 2 5 -10 5 -27 2 -30 -6 -53 -31 -28 -31 6 0 8 -4 5 -10 -10 -15 -23
-12 -27 7 -2 12 -14 18 -38 19 -19 1 -36 7 -38 13 -2 7 -8 7 -16 -2 -8 -6 -11
-18 -9 -24 8 -20 -15 -15 -28 5 -8 12 -20 17 -35 14 -14 -2 -24 0 -24 7 0 7
-5 9 -11 5 -8 -4 -7 -9 2 -15 11 -6 10 -9 -4 -15 -23 -9 -64 13 -70 38 -5 17
-15 18 -169 16 -89 -2 -229 1 -309 6 l-147 9 -5 43 c-2 23 -14 55 -26 70 l-22
28 26 13 c28 15 64 18 112 8 28 -6 34 -4 44 19 9 18 18 25 28 20 9 -3 22 -8
28 -11 7 -3 18 7 24 21 14 29 24 33 33 11 11 -29 23 -14 30 35 4 28 9 50 12
50 4 0 15 -11 26 -25 27 -34 44 -19 53 46 7 50 19 60 44 36 12 -10 13 -9 7 7
-5 15 -2 17 19 12 20 -5 25 -3 25 13 0 10 11 26 25 35 14 9 24 24 23 34 -4 52
3 73 28 84 24 11 26 16 22 65 -3 37 -1 57 9 64 16 14 17 41 2 56 -8 8 -7 17 1
34 8 14 10 41 7 72 -5 36 -2 53 9 64 16 16 15 34 -2 40 -6 2 -26 -7 -45 -20
-38 -26 -89 -42 -89 -29 0 4 19 18 43 30 23 13 58 32 78 43 l36 21 -3 79 c-2
43 1 81 6 84 12 7 25 109 21 170 -2 36 -10 60 -29 85 l-27 35 30 -19 30 -19
-18 21 c-11 11 -16 26 -12 33 5 7 -2 19 -16 30 l-24 19 24 0 c20 0 22 2 10 16
-7 8 -21 13 -31 11 -20 -6 -26 18 -5 26 6 3 -8 3 -32 1 -38 -4 -42 -3 -29 9 8
8 23 17 34 19 17 4 16 6 -8 18 -15 7 -25 17 -22 22 4 5 -3 4 -15 -4 -12 -7
-19 -19 -16 -27 6 -16 -12 -41 -29 -41 -6 1 -5 6 4 13 8 7 16 27 17 45 2 27
-1 33 -13 28 -9 -3 -18 -6 -20 -6 -2 0 -4 -6 -4 -14 0 -11 -5 -12 -25 -3 -14
7 -24 19 -23 27 2 8 -2 16 -7 18 -6 1 -11 -6 -13 -18 -4 -27 -42 -28 -42 -1 0
11 -5 23 -10 26 -6 4 -8 21 -4 41 4 20 2 34 -4 34 -5 0 -15 12 -21 28 -16 38
-78 109 -87 99 -5 -4 -3 -21 3 -37 6 -16 8 -30 4 -32 -4 -2 -17 -18 -30 -37
-24 -33 -25 -33 -80 -28 -59 6 -96 22 -173 75 -41 28 -55 47 -94 130 -47 98
-84 200 -84 232 0 9 9 25 20 35 16 14 30 17 76 12 30 -3 66 -13 79 -21 43 -28
49 -17 10 17 -20 17 -45 39 -54 47 -9 8 -29 21 -43 29 -28 15 -29 31 -1 31 30
0 83 24 83 37 0 17 -56 51 -98 59 -38 7 -69 -11 -52 -31 11 -13 -6 -25 -36
-25 -11 0 -11 5 -3 28 7 15 15 36 19 47 14 37 31 70 64 126 18 31 36 68 40 83
7 29 -10 96 -24 96 -14 0 -41 -31 -35 -41 4 -5 -1 -6 -9 -3 -11 4 -16 0 -16
-10 0 -9 -4 -16 -10 -16 -5 0 -10 9 -10 20 0 11 -5 20 -11 20 -6 0 -8 -7 -5
-16 6 -15 4 -15 -10 -3 -13 11 -15 26 -12 81 l5 68 -82 0 -83 0 -6 -37z m82
-616 c68 -33 114 -101 132 -189 l7 -37 -25 19 c-34 27 -68 25 -88 -5 -20 -30
-13 -63 22 -104 21 -25 31 -29 57 -25 26 3 28 2 12 -5 -16 -8 -17 -10 -3 -10
53 -3 -52 -121 -125 -139 -57 -14 -177 -15 -270 -2 -82 12 -101 30 -117 108
-14 66 -2 128 41 215 90 178 222 242 357 174z m-548 -341 c0 -11 -19 -15 -25
-6 -3 5 1 10 9 10 9 0 16 -2 16 -4z m865 -70 c14 -10 30 -28 35 -42 5 -13 18
-28 28 -32 24 -9 92 -69 92 -80 0 -5 6 -15 14 -22 8 -6 12 -18 9 -26 -3 -8 1
-14 8 -14 7 0 9 -3 6 -7 -4 -3 1 -15 10 -25 16 -18 16 -18 0 -12 -27 10 -20
-4 11 -21 22 -13 23 -15 5 -10 -15 4 -23 2 -24 -7 -1 -7 -3 -30 -4 -50 -2 -21
0 -40 6 -43 5 -4 9 -22 9 -41 0 -21 4 -33 10 -29 14 9 11 -6 -9 -40 -10 -16
-28 -36 -42 -42 -27 -14 -187 -17 -207 -5 -14 10 -8 36 17 67 16 20 15 20 -5
3 -24 -21 -34 -23 -34 -5 0 6 -8 21 -17 32 -13 17 -15 17 -9 2 3 -10 2 -16 -2
-14 -46 24 -83 36 -96 31 -9 -3 -16 -2 -16 4 0 13 -38 23 -46 11 -3 -5 -10 -9
-15 -9 -6 0 -8 4 -5 9 3 5 -1 12 -10 15 -10 4 -14 1 -12 -6 3 -7 -7 -23 -20
-35 -19 -18 -22 -26 -13 -36 6 -8 8 -17 4 -20 -7 -8 -63 -10 -63 -3 0 2 11 27
25 54 14 28 25 54 25 60 0 5 10 31 22 58 11 27 19 49 17 50 -2 0 1 7 8 15 6 8
14 32 18 54 9 53 92 191 130 216 35 23 100 21 140 -5z m-1040 -136 c-3 -5 -11
-10 -16 -10 -6 0 -7 5 -4 10 3 6 11 10 16 10 6 0 7 -4 4 -10z m1625 -129 c0
-12 -20 -25 -27 -18 -7 7 6 27 18 27 5 0 9 -4 9 -9z m-40 -5 c0 -2 -8 -10 -17
-17 -16 -13 -17 -12 -4 4 13 16 21 21 21 13z m-1559 -31 c-18 -8 -36 -15 -40
-15 -13 1 45 29 59 29 8 0 0 -6 -19 -14z m1594 -35 c3 -5 4 -10 1 -10 -2 0
-12 -3 -20 -6 -12 -5 -15 -2 -10 10 7 18 20 21 29 6z m-1580 -29 c-14 -13 -83
-26 -70 -13 10 10 37 19 65 21 8 1 10 -2 5 -8z m278 2 c-7 -2 -19 -2 -25 0 -7
3 -2 5 12 5 14 0 19 -2 13 -5z m-133 -25 c0 -12 -20 -20 -36 -14 -8 3 -13 10
-9 15 6 11 45 10 45 -1z m1450 -18 c0 -5 -5 -10 -10 -10 -6 0 -15 -11 -20 -25
-5 -14 -14 -25 -20 -25 -11 0 1 31 23 58 11 14 27 16 27 2z m-1684 -9 c-3 -5
-16 -11 -28 -14 -13 -2 -32 -8 -42 -12 -14 -6 -17 -5 -12 3 4 6 21 16 39 21
43 12 49 13 43 2z m1604 -6 c-7 -8 -17 -15 -23 -15 -6 0 -2 7 9 15 25 19 30
19 14 0z m-1460 -15 c0 -5 -6 -10 -14 -10 -7 0 -25 -9 -39 -20 -14 -11 -28
-20 -32 -20 -4 0 9 14 30 30 39 31 55 37 55 20z m1430 -14 c0 -2 -7 -9 -15
-16 -13 -11 -14 -10 -9 4 5 14 24 23 24 12z m-1214 -18 c4 -6 3 -8 -4 -4 -6 3
-26 -3 -44 -14 -35 -21 -68 -26 -68 -10 0 6 8 10 18 10 10 0 27 7 38 15 23 17
50 19 60 3z m47 5 c-7 -2 -19 -2 -25 0 -7 3 -2 5 12 5 14 0 19 -2 13 -5z m-33
-88 c-8 -9 -27 -23 -44 -32 -28 -14 -28 -12 9 20 40 35 60 42 35 12z m344 -1
c3 -9 6 -25 6 -37 -1 -21 -1 -21 -15 3 -8 14 -14 31 -15 38 0 17 17 15 24 -4z
m936 2 c0 -2 -8 -10 -17 -17 -16 -13 -17 -12 -4 4 13 16 21 21 21 13z m-135
-16 c-3 -5 -11 -10 -16 -10 -6 0 -7 5 -4 10 3 6 11 10 16 10 6 0 7 -4 4 -10z
m53 -12 c-20 -29 -38 -35 -31 -9 3 11 12 22 22 24 9 3 18 5 20 6 2 0 -3 -9
-11 -21z m-658 -2 c83 -5 116 -27 67 -45 -12 -5 -33 -22 -47 -38 -14 -16 -33
-33 -44 -36 -16 -6 -17 -4 -12 20 l7 28 -20 -25 c-20 -25 -20 -25 0 -32 16 -6
18 -10 8 -21 -7 -7 -21 -14 -32 -14 -11 -1 -17 1 -13 4 3 3 1 12 -5 19 -6 8
-9 20 -5 29 3 8 0 14 -7 12 -6 -1 -13 8 -15 21 -2 12 -8 20 -13 17 -13 -9 -11
49 2 62 6 6 27 9 48 6 20 -3 56 -6 81 -7z m540 -16 c0 -21 15 -27 25 -10 4 6
11 8 16 4 13 -7 -29 -54 -48 -54 -17 0 -17 17 0 23 8 4 8 8 2 14 -13 10 -16
43 -4 43 5 0 9 -9 9 -20z m-1470 -20 c0 -11 -4 -20 -9 -20 -13 0 -32 26 -24
33 13 14 33 6 33 -13z m496 -15 c-11 -8 -22 -12 -25 -9 -6 6 19 24 34 24 6 -1
1 -7 -9 -15z m-42 -10 c3 -9 0 -15 -9 -15 -8 0 -15 7 -15 15 0 8 4 15 9 15 5
0 11 -7 15 -15z m1186 -8 c0 -24 -62 -98 -92 -110 -10 -3 -20 -1 -24 4 -4 6
-20 8 -40 5 l-33 -7 1 41 c0 23 5 40 12 40 6 0 22 9 36 20 32 25 44 25 37 0
-7 -28 15 -26 50 5 35 31 53 32 53 2z m-1600 -27 c0 -20 19 -30 56 -30 29 0
32 -20 4 -27 -11 -3 -17 -9 -15 -14 3 -4 12 -6 20 -2 9 3 15 -1 15 -11 0 -22
-16 -20 -42 7 -13 12 -41 28 -63 34 -51 16 -55 16 -55 -2 0 -8 4 -15 9 -15 5
0 16 -15 25 -34 11 -24 24 -35 46 -39 16 -4 30 -13 30 -21 0 -7 10 -17 23 -21
12 -3 17 -9 10 -11 -7 -3 -22 0 -34 6 -17 10 -23 9 -30 -1 -5 -8 -6 -20 -4
-28 5 -11 3 -12 -10 -1 -18 15 -20 41 -3 58 9 9 7 12 -9 12 -12 0 -28 8 -35
18 -7 11 -24 24 -36 31 -22 12 -23 11 -17 -11 7 -20 6 -21 -8 -10 -19 16 -18
53 3 70 13 11 13 11 -2 6 -14 -5 -18 -1 -18 20 0 27 9 28 67 11 6 -2 21 5 33
15 25 22 40 18 40 -10z m125 2 c6 -4 19 -18 30 -31 l20 -24 -30 7 c-36 9 -60
30 -51 45 8 13 17 14 31 3z m905 4 c0 -2 -9 -6 -20 -9 -11 -3 -18 -1 -14 4 5
9 34 13 34 5z m610 -6 c0 -6 11 -15 25 -20 14 -5 25 -16 25 -25 0 -20 -10 -19
-26 3 -7 9 -14 12 -14 6 0 -13 -60 -62 -81 -66 -7 -2 -20 -9 -27 -15 -16 -15
-78 -17 -87 -3 -3 6 -15 10 -26 10 -10 0 -19 5 -19 10 0 6 6 10 13 10 6 0 22
3 35 6 16 5 22 3 20 -6 -5 -20 39 -18 69 2 16 11 38 23 51 28 16 7 22 18 22
40 0 16 5 30 10 30 6 0 10 -5 10 -10z m-951 -61 c1 -13 6 -26 10 -29 19 -14
51 -65 51 -81 0 -9 -7 -25 -16 -33 -17 -17 -69 -22 -59 -6 3 6 15 10 26 10 10
0 19 5 19 10 0 6 -9 10 -20 10 -17 0 -19 3 -10 19 14 27 13 41 -5 41 -8 0 -15
5 -15 11 0 7 -6 17 -14 23 -10 8 -12 18 -5 34 11 29 33 24 38 -9z m-90 -40
l-24 -19 24 0 c24 0 24 -1 -9 -25 l-34 -25 35 0 c25 0 30 -3 19 -10 -20 -13
-52 -13 -87 1 -22 8 -24 12 -13 19 8 6 26 10 39 10 19 0 22 4 18 22 -5 16 2
31 21 51 23 24 28 26 31 11 2 -10 -7 -25 -20 -35z m1051 -9 c0 -14 -11 -22
-37 -29 -57 -16 -59 -14 -17 18 47 35 54 37 54 11z m-194 -29 c5 -5 18 -12 29
-15 11 -3 0 -3 -25 0 -50 6 -80 24 -39 24 14 0 29 -4 35 -9z m-977 -15 c-2 -2
-15 -7 -29 -10 l-25 -7 25 15 c21 12 42 14 29 2z m965 -19 l26 -14 -26 -11
c-34 -16 -44 -15 -44 4 0 8 5 12 10 9 6 -3 10 -2 10 4 0 5 -6 12 -12 14 -9 4
-9 6 -2 6 7 1 23 -5 38 -12z m89 -4 c-7 -2 -19 -2 -25 0 -7 3 -2 5 12 5 14 0
19 -2 13 -5z m-1143 -13 c-19 -13 -30 -13 -30 0 0 6 10 10 23 10 18 0 19 -2 7
-10z m365 -30 c-3 -5 -14 -10 -23 -10 -15 0 -15 2 -2 10 20 13 33 13 25 0z
m-675 -37 c0 -18 -17 -16 -24 3 -8 22 4 40 15 23 5 -8 9 -20 9 -26z m1425 28
c-13 -12 -125 -23 -125 -13 0 18 15 22 74 22 35 0 56 -4 51 -9z m-1378 -20
c11 -17 10 -18 -13 -7 -26 12 -32 26 -11 26 7 0 17 -8 24 -19z m643 0 c0 -5
-7 -12 -16 -15 -21 -8 -95 4 -88 15 7 12 104 12 104 0z m790 -6 c-7 -8 -26
-15 -43 -15 -47 0 -12 24 42 29 11 1 11 -2 1 -14z m-1523 -27 c-4 -14 0 -29
10 -40 20 -22 10 -23 -22 -2 -27 18 -31 34 -13 52 19 19 31 14 25 -10z m585
-7 c-12 -7 -62 -4 -62 5 0 2 17 4 38 4 23 0 32 -3 24 -9z m168 -1 c0 -5 -11
-10 -25 -10 -14 0 -38 -9 -53 -19 -24 -18 -61 -26 -102 -22 -9 1 -2 9 15 18
64 35 165 55 165 33z m600 -27 c0 -5 25 -6 55 -5 63 4 94 -3 79 -18 -13 -13
-155 -17 -173 -6 -12 8 -11 11 4 23 21 14 35 17 35 6z m240 -2 c0 -15 -24 -29
-52 -29 -34 1 -36 15 -5 28 29 12 57 12 57 1z m-830 -20 c0 -14 -67 -34 -82
-25 -8 5 -3 12 17 20 36 16 65 18 65 5z m215 -22 c10 -14 2 -19 -42 -29 l-38
-9 30 25 c34 27 41 29 50 13z m-490 -9 c4 -6 -10 -10 -34 -10 -22 0 -43 5 -46
10 -4 6 10 10 34 10 22 0 43 -4 46 -10z m603 -20 c10 -17 8 -21 -19 -36 -18
-9 -43 -14 -58 -11 -15 3 -33 -1 -42 -9 -9 -8 -41 -24 -70 -35 l-54 -19 44 40
c24 22 56 43 70 46 73 15 110 27 105 35 -3 5 -1 9 3 9 5 0 14 -9 21 -20z
m-320 -22 c-3 -7 -28 -17 -57 -22 -35 -6 -50 -13 -47 -21 3 -9 -13 -14 -52
-17 -67 -6 -106 3 -110 24 -3 13 7 15 62 12 52 -3 64 0 60 11 -7 17 14 22 89
24 43 1 58 -2 55 -11z m774 0 c-21 -21 -142 -21 -142 1 0 5 35 9 77 10 61 1
75 -1 65 -11z m-176 -9 c16 -27 -54 -39 -80 -14 -8 9 -22 12 -32 8 -11 -4 -15
-2 -11 4 9 14 114 16 123 2z m-229 -14 c7 -19 -23 -44 -53 -45 -34 0 -36 12
-7 37 33 26 51 29 60 8z m90 -51 c4 -11 -38 -34 -60 -34 -7 0 -19 5 -27 10
-13 8 -12 11 5 25 22 16 76 16 82 -1z m198 -4 c11 -18 -14 -47 -40 -47 -34 0
-40 12 -18 36 20 21 48 27 58 11z m-901 -17 c38 -18 40 -35 3 -26 -26 7 -47
22 -47 34 0 12 4 11 44 -8z m826 7 c0 -27 -88 -30 -98 -2 -2 8 11 12 47 12 28
0 51 -4 51 -10z m-561 -19 c13 -11 29 -17 37 -14 8 3 14 0 14 -6 0 -11 -14
-13 -71 -15 -14 -1 -32 -6 -40 -12 -12 -9 -47 -11 -81 -5 -5 0 -8 7 -8 15 0
17 21 26 60 26 16 0 30 7 34 15 7 20 29 19 55 -4z m264 -3 c2 -9 29 -13 85
-13 45 0 82 -2 82 -4 0 -3 -7 -13 -17 -23 -18 -21 -60 -23 -98 -6 -21 10 -29
8 -48 -9 -14 -13 -37 -21 -65 -22 -23 0 -56 -8 -73 -16 -27 -15 -71 -16 -84
-4 -9 9 72 69 93 69 11 0 30 9 43 20 27 22 75 26 82 8z m237 -48 c0 -32 -69
-56 -85 -29 -11 17 26 49 57 49 21 0 28 -5 28 -20z m6 -55 c-11 -8 -27 -15
-35 -15 -11 0 -10 4 5 15 10 8 26 14 34 14 11 0 10 -3 -4 -14z m-386 -37 c0
-10 -44 -21 -66 -16 -9 1 -19 8 -21 15 -3 9 9 12 41 10 25 -1 46 -5 46 -9z
m-269 -28 c18 -15 20 -19 8 -20 -9 0 -24 9 -34 20 -23 26 -4 26 26 0z m228
-304 c9 -11 6 -16 -16 -25 -16 -6 -45 -27 -66 -46 -30 -27 -47 -35 -77 -35
-33 0 -41 5 -59 34 -12 19 -29 37 -38 40 -29 12 -3 20 70 23 40 2 86 7 102 12
44 14 71 13 84 -3z m-599 -16 c0 -9 -5 -31 -11 -49 l-11 -31 -79 0 c-86 0 -92
5 -63 50 27 40 38 45 103 46 52 1 61 -1 61 -16z m1767 -156 c-3 -3 -12 -4 -19
-1 -8 3 -5 6 6 6 11 1 17 -2 13 -5z m-107 -24 c0 -5 -4 -10 -10 -10 -5 0 -10
5 -10 10 0 6 5 10 10 10 6 0 10 -4 10 -10z m193 -27 c-7 -2 -21 -2 -30 0 -10
3 -4 5 12 5 17 0 24 -2 18 -5z"/>
<path d="M1685 1880 c-10 -30 10 -48 24 -22 8 15 7 23 -3 31 -11 10 -16 8 -21
-9z"/>
<path d="M1550 1270 c0 -5 5 -10 10 -10 6 0 10 5 10 10 0 6 -4 10 -10 10 -5 0
-10 -4 -10 -10z"/>
<path d="M2208 1228 c-16 -5 -28 -14 -28 -19 0 -15 16 -10 41 11 27 22 26 23
-13 8z"/>
<path d="M1797 2110 c-20 -16 -27 -30 -27 -54 0 -41 34 -86 63 -86 18 0 20 2
7 11 -13 10 -13 10 0 6 8 -3 24 -9 34 -13 13 -5 17 -4 13 3 -4 6 5 23 18 37
31 33 31 48 3 80 -32 37 -76 43 -111 16z"/>
<path d="M720 1873 c-13 -15 -12 -16 4 -10 10 4 22 7 27 7 5 0 9 5 9 10 0 15
-23 11 -40 -7z"/>
<path d="M540 1091 c0 -6 4 -13 10 -16 6 -3 7 1 4 9 -7 18 -14 21 -14 7z"/>
<path d="M482 1044 c-17 -11 -22 -25 -22 -57 0 -23 5 -49 10 -57 8 -12 10 -11
10 7 0 12 9 45 20 73 21 53 18 59 -18 34z"/>
<path d="M230 160 c0 -5 5 -10 10 -10 6 0 10 5 10 10 0 6 -4 10 -10 10 -5 0
-10 -4 -10 -10z"/>
<path d="M158 148 c5 -5 16 -8 23 -6 8 3 3 7 -10 11 -17 4 -21 3 -13 -5z"/>
</g>
</svg>
